<?xml version="1.0" encoding="UTF-8"?>
<svg width="16px" height="16px" viewBox="0 0 16 16" version="1.1" xmlns="http://www.w3.org/2000/svg" xmlns:xlink="http://www.w3.org/1999/xlink">
    <!-- Generator: sketchtool 55.1 (78136) - https://sketchapp.com -->
    <title>A4AB5851-5AC6-4B79-ABD9-7918243D716A</title>
    <desc>Created with sketchtool.</desc>
    <g id="Transferencias" stroke="none" stroke-width="1" fill="none" fill-rule="evenodd">
        <g id="01.07-MOB-Transferencias-confirmar-datos" transform="translate(-288.000000, -40.000000)" fill="#EC7000" fill-rule="nonzero">
            <g id="Chassi-/-01.-Header-/--01.-iPhone-5-/-01.-Default-Copy-9">
                <g id="Tipo" transform="translate(0.000000, 24.000000)">
                    <g id="Ícone-3" transform="translate(284.000000, 12.000000)">
                        <path d="M19.828125,18.9765625 C19.9375005,19.1015631 19.9921875,19.2460929 19.9921875,19.4101562 C19.9921875,19.5742196 19.9375005,19.710937 19.828125,19.8203125 C19.7031244,19.9453131 19.5585946,20.0078125 19.3945312,20.0078125 C19.2304679,20.0078125 19.0937505,19.9453131 18.984375,19.8203125 L12,12.8359375 L5.015625,19.8203125 C4.90624945,19.9453131 4.76562586,20.0078125 4.59375,20.0078125 C4.42187414,20.0078125 4.28125055,19.9453131 4.171875,19.8203125 C4.06249945,19.710937 4.0078125,19.5742196 4.0078125,19.4101562 C4.0078125,19.2460929 4.06249945,19.1015631 4.171875,18.9765625 L11.15625,11.9921875 L4.171875,5.0078125 C4.06249945,4.89843695 4.0078125,4.76171957 4.0078125,4.59765625 C4.0078125,4.43359293 4.06249945,4.28906312 4.171875,4.1640625 C4.29687563,4.05468695 4.44140543,4 4.60546875,4 C4.76953207,4 4.90624945,4.05468695 5.015625,4.1640625 L12,11.1484375 L18.984375,4.1640625 C19.0937505,4.05468695 19.2343741,4 19.40625,4 C19.5781259,4 19.7187495,4.05468695 19.828125,4.1640625 C19.9375005,4.28906312 19.9921875,4.43359293 19.9921875,4.59765625 C19.9921875,4.76171957 19.9375005,4.89843695 19.828125,5.0078125 L12.84375,11.9921875 L19.828125,18.9765625 Z" id=""></path>
                    </g>
                </g>
            </g>
        </g>
    </g>
</svg>