<?xml version="1.0" encoding="UTF-8"?>
<svg width="20px" height="20px" viewBox="0 0 20 20" version="1.1" xmlns="http://www.w3.org/2000/svg" xmlns:xlink="http://www.w3.org/1999/xlink">
    <title>AA0B5D73-5543-414C-8E68-922EF21790FC</title>
    <g id="Page-1" stroke="none" stroke-width="1" fill="none" fill-rule="evenodd">
        <g id="localizaciónPermiso1" transform="translate(-26.000000, -241.000000)" fill="#EC7000" fill-rule="nonzero">
            <path d="M42,261 C42.296875,261 42.5546875,260.875 42.7734375,260.625 C42.9921875,260.375 43.0546875,260.085938 42.9609375,259.757812 L40.9921875,253.007812 L45.6328125,249.46875 C45.9765625,249.1875 46.0859375,248.839844 45.9609375,248.425781 C45.8359375,248.011719 45.5546875,247.773438 45.1171875,247.710938 L39,247.007812 L36.9140625,241.59375 C36.8359375,241.40625 36.7109375,241.261719 36.5390625,241.160156 C36.3671875,241.058594 36.1875,241.007812 36,241.007812 C35.8125,241.007812 35.6328125,241.058594 35.4609375,241.160156 C35.2890625,241.261719 35.1640625,241.40625 35.0859375,241.59375 L33,247.007812 L26.8828125,247.710938 C26.4453125,247.773438 26.1640625,248.011719 26.0390625,248.425781 C25.9140625,248.839844 26.0234375,249.1875 26.3671875,249.46875 L31.0078125,253.007812 L29.0390625,259.757812 C28.9453125,260.085938 29.0078125,260.375 29.2265625,260.625 C29.4453125,260.875 29.703125,261 30,261 C30.078125,261 30.1601562,260.988281 30.2460938,260.964844 C30.3320312,260.941406 30.4140625,260.90625 30.4921875,260.859375 L36,258 L41.5078125,260.859375 C41.5859375,260.90625 41.6679688,260.941406 41.7539062,260.964844 C41.8398438,260.988281 41.921875,261 42,261 Z M42,259.992188 L41.9765625,259.992188 L41.9765625,259.96875 L36,256.875 L35.53125,257.109375 L30,259.992188 L32.15625,252.609375 L31.59375,252.210938 L27,248.71875 L33.7265625,247.921875 L33.9375,247.359375 L36,241.992188 L38.2734375,247.921875 L45,248.695312 L39.84375,252.609375 L40.03125,253.289062 L42,259.992188 Z" id="f"></path>
        </g>
    </g>
</svg>